# Blender v2.79 (sub 0) OBJ File: ''
# www.blender.org
mtllib engine.mtl
o upperbase
v 0.748892 0.622783 0.748892
v 0.251108 0.622783 0.748892
v 0.251109 0.622783 0.251109
v 0.748892 0.933898 0.251109
v 0.251108 0.933898 0.251109
v 0.251108 0.933898 0.748892
v 0.748892 0.622783 0.251109
v 0.748891 0.933898 0.748892
vt 0.500000 0.500000
vt 0.500000 1.000000
vt 0.000000 1.000000
vt 0.500000 0.125000
vt 0.750000 0.125000
vt 0.750000 0.375000
vt 0.312500 0.124999
vt 0.500000 0.374998
vt 0.312501 0.124998
vt 0.499999 0.124999
vt 0.499999 0.374999
vt 0.500000 0.124998
vt 0.500000 0.374998
vt 0.312500 0.374999
vt 0.499999 0.124999
vt 0.499999 0.374999
vt 0.312501 0.374998
vt 0.000000 0.500000
vt 0.312500 0.374999
vt 0.312501 0.374998
vt 0.312500 0.124999
vt 0.312501 0.124998
vn 0.0000 -1.0000 -0.0000
vn 0.0000 1.0000 0.0000
vn 1.0000 0.0000 0.0000
vn 0.0000 -0.0000 1.0000
vn -1.0000 -0.0000 -0.0000
vn 0.0000 0.0000 -1.0000
usemtl material
f 1/1/1 2/2/1 3/3/1
f 4/4/2 5/5/2 6/6/2
f 7/7/3 4/4/3 8/8/3
f 1/9/4 8/10/4 6/11/4
f 6/12/5 5/13/5 3/14/5
f 7/15/6 3/16/6 5/17/6
f 7/18/1 1/1/1 3/3/1
f 8/8/2 4/4/2 6/6/2
f 1/19/3 7/7/3 8/8/3
f 2/20/4 1/9/4 6/11/4
f 2/21/5 6/12/5 3/14/5
f 4/22/6 7/15/6 5/17/6
o gear
v 0.589458 0.436115 0.050266
v 0.589458 0.249446 0.050265
v 0.500000 0.249446 0.041455
v 0.808131 0.436115 0.372368
v 0.808131 0.249446 0.372368
v 0.881266 0.249446 0.245246
v 0.824241 0.436114 0.824240
v 0.824241 0.249446 0.824240
v 0.777311 0.249446 0.685293
v 0.410543 0.436114 0.949735
v 0.410543 0.249446 0.949735
v 0.500000 0.249446 0.958546
v 0.191868 0.436114 0.627633
v 0.191868 0.249446 0.627633
v 0.118733 0.249446 0.754754
v 0.191868 0.436115 0.372368
v 0.222689 0.436115 0.314707
v 0.222689 0.249446 0.314707
v 0.434933 0.436115 0.172889
v 0.500000 0.436115 0.041455
v 0.881266 0.436115 0.245246
v 0.824240 0.249446 0.175760
v 0.777311 0.436114 0.685293
v 0.808131 0.249446 0.627632
v 0.500000 0.436114 0.958546
v 0.565067 0.249446 0.827111
v 0.118733 0.436114 0.754754
v 0.175760 0.249446 0.824241
v 0.191868 0.249446 0.372368
v 0.050265 0.249446 0.410542
v 0.434933 0.249446 0.172889
v 0.372368 0.249446 0.191868
v 0.685293 0.436115 0.222689
v 0.824240 0.436115 0.175760
v 0.808131 0.436114 0.627632
v 0.949735 0.249446 0.589457
v 0.565067 0.436114 0.827111
v 0.627632 0.249446 0.808131
v 0.175760 0.436114 0.824241
v 0.314707 0.249446 0.777311
v 0.041454 0.436114 0.500000
v 0.050265 0.436114 0.410542
v 0.372368 0.436115 0.191869
v 0.245246 0.249446 0.118733
v 0.685293 0.249446 0.222689
v 0.627632 0.249446 0.191868
v 0.827110 0.249446 0.434934
v 0.827110 0.436114 0.434934
v 0.958545 0.436114 0.500000
v 0.949735 0.436114 0.589457
v 0.627632 0.436114 0.808131
v 0.754755 0.249446 0.881266
v 0.314707 0.436114 0.777312
v 0.372368 0.249446 0.808132
v 0.041454 0.249446 0.500000
v 0.172889 0.249446 0.565066
v 0.245246 0.436115 0.118734
v 0.175759 0.249446 0.175760
v 0.627632 0.436115 0.191869
v 0.754755 0.436114 0.881266
v 0.372368 0.436114 0.808132
v 0.172889 0.436114 0.565067
v 0.175759 0.436115 0.175760
v 0.958545 0.249446 0.500000
vt 0.812498 0.343724
vt 0.812404 0.250064
vt 0.874906 0.250065
vt 0.906251 0.343749
vt 0.906158 0.250089
vt 0.999911 0.250089
vt 0.999911 0.250089
vt 1.000000 0.343749
vt 0.906251 0.343749
vt 0.874906 0.250065
vt 0.874999 0.343725
vt 0.812498 0.343724
vt 0.906158 0.250089
vt 0.906252 0.343749
vt 1.000000 0.343749
vt 0.937505 0.343689
vt 0.906252 0.343690
vt 0.906159 0.250030
vt 0.906158 0.250089
vt 0.999911 0.250089
vt 1.000000 0.343749
vt 0.812498 0.343724
vt 0.812404 0.250064
vt 0.874906 0.250065
vt 0.937411 0.250029
vt 0.937505 0.343689
vt 0.906252 0.343690
vt 1.000000 0.343749
vt 0.999912 0.250089
vt 0.906157 0.250089
vt 0.812498 0.343724
vt 0.812404 0.250064
vt 0.874906 0.250065
vt 0.906251 0.343749
vt 0.906158 0.250089
vt 0.999911 0.250089
vt 0.937411 0.250029
vt 0.937505 0.343689
vt 0.906252 0.343690
vt 0.906252 0.343749
vt 1.000000 0.343749
vt 0.999911 0.250089
vt 0.906251 0.343749
vt 0.906158 0.250089
vt 0.999911 0.250089
vt 0.906252 0.343690
vt 0.906159 0.250030
vt 0.937411 0.250029
vt 1.000000 0.343749
vt 0.999911 0.250089
vt 0.906158 0.250089
vt 0.812404 0.250064
vt 0.874906 0.250065
vt 0.874999 0.343725
vt 0.906251 0.343749
vt 0.906158 0.250089
vt 0.999911 0.250089
vt 0.906159 0.250030
vt 0.937411 0.250029
vt 0.906251 0.343749
vt 0.906158 0.250089
vt 0.999911 0.250089
vt 0.874999 0.343725
vt 0.812498 0.343724
vt 0.812404 0.250064
vt 0.906251 0.343749
vt 0.906158 0.250089
vt 0.999911 0.250089
vt 0.937411 0.250029
vt 0.937505 0.343689
vt 0.906252 0.343690
vt 1.000000 0.343749
vt 0.999911 0.250089
vt 0.906158 0.250089
vt 0.874906 0.250065
vt 0.874999 0.343725
vt 0.812498 0.343724
vt 0.906251 0.343749
vt 0.906158 0.250089
vt 0.999911 0.250089
vt 0.906159 0.250030
vt 0.937411 0.250029
vt 0.937505 0.343689
vt 0.812498 0.343724
vt 0.812404 0.250064
vt 0.874906 0.250065
vt 1.000000 0.343749
vt 0.906251 0.343749
vt 0.906158 0.250089
vt 0.906252 0.343690
vt 0.906159 0.250030
vt 0.937411 0.250029
vt 0.906158 0.250089
vt 0.999911 0.250089
vt 1.000000 0.343749
vt 0.874999 0.343725
vt 1.000000 0.343749
vt 0.906158 0.250089
vt 0.812404 0.250064
vt 0.999911 0.250089
vt 0.937411 0.250029
vt 0.906251 0.343749
vt 0.874999 0.343725
vt 0.906159 0.250030
vt 0.874999 0.343725
vt 1.000000 0.343749
vt 0.906159 0.250030
vt 0.906158 0.250089
vt 1.000000 0.343749
vt 0.937505 0.343689
vt 0.906251 0.343749
vt 0.812498 0.343724
vt 1.000000 0.343749
vt 0.937505 0.343689
vt 1.000000 0.343749
vt 0.874906 0.250065
vt 1.000000 0.343749
vt 0.906159 0.250030
vt 0.812404 0.250064
vt 1.000000 0.343749
vt 0.906252 0.343690
vt 0.874999 0.343725
vt 0.999911 0.250089
vt 0.937505 0.343689
vt 0.906251 0.343749
vn 0.0980 0.0000 -0.9952
vn 0.8668 0.0000 0.4987
vn 0.9474 0.0000 -0.3200
vn -0.0980 0.0000 0.9952
vn -0.8668 0.0000 -0.4987
vn -0.8819 0.0000 -0.4714
vn -0.8962 0.0000 -0.4437
vn 0.7730 0.0000 -0.6344
vn 0.8819 0.0000 0.4714
vn 0.8962 0.0000 0.4437
vn -0.7730 0.0000 0.6344
vn -0.2603 0.0000 -0.9655
vn -0.2903 0.0000 -0.9569
vn -0.3200 0.0000 -0.9474
vn 0.2603 0.0000 0.9655
vn 0.2903 0.0000 0.9569
vn 0.3200 0.0000 0.9474
vn -0.9952 0.0000 -0.0980
vn 0.4987 0.0000 -0.8668
vn 0.4714 0.0000 -0.8819
vn 0.4437 0.0000 -0.8962
vn 0.9952 0.0000 0.0980
vn -0.4987 0.0000 0.8668
vn -0.4714 -0.0000 0.8819
vn -0.4437 0.0000 0.8962
vn -0.6344 0.0000 -0.7730
vn 0.9655 0.0000 -0.2603
vn 0.9569 -0.0000 -0.2903
vn 0.6344 0.0000 0.7730
vn -0.9655 0.0000 0.2603
vn -0.9569 -0.0000 0.2903
vn -0.9474 -0.0000 0.3200
usemtl material
f 9/23/7 10/24/7 11/25/7
f 12/26/8 13/27/8 14/28/8
f 15/29/9 16/30/9 17/31/9
f 18/32/10 19/33/10 20/34/10
f 21/35/11 22/36/11 23/37/11
f 24/38/12 25/39/12 26/40/12
f 27/41/13 28/42/13 11/43/13
f 29/44/14 14/45/14 30/46/14
f 31/47/15 17/48/15 32/49/15
f 33/50/16 20/51/16 34/52/16
f 35/53/17 23/54/17 36/55/17
f 24/56/18 37/57/18 38/58/18
f 27/59/19 39/60/19 40/61/19
f 41/62/20 42/63/20 30/64/20
f 43/65/21 32/66/21 44/67/21
f 45/68/22 34/69/22 46/70/22
f 47/71/23 36/72/23 48/73/23
f 49/74/24 50/75/24 38/76/24
f 51/77/25 40/78/25 52/79/25
f 41/62/26 53/80/26 54/81/26
f 55/82/27 56/83/27 57/84/27
f 57/85/28 58/86/28 44/87/28
f 59/88/29 46/89/29 60/90/29
f 61/91/30 48/92/30 62/93/30
f 49/94/31 63/95/31 64/96/31
f 65/97/32 52/98/32 66/99/32
f 67/100/33 54/101/33 10/102/33
f 12/103/34 56/104/34 55/105/34
f 68/106/35 60/107/35 16/108/35
f 18/109/36 69/110/36 62/111/36
f 70/112/37 64/113/37 22/114/37
f 25/115/38 71/116/38 66/117/38
f 28/118/7 9/23/7 11/25/7
f 29/119/8 12/26/8 14/28/8
f 31/120/9 15/29/9 17/31/9
f 33/121/10 18/32/10 20/34/10
f 35/122/11 21/35/11 23/37/11
f 37/123/12 24/38/12 26/40/12
f 39/124/13 27/41/13 11/43/13
f 42/125/14 29/44/14 30/46/14
f 43/126/15 31/47/15 32/49/15
f 45/68/16 33/50/16 34/52/16
f 47/127/17 35/53/17 36/55/17
f 50/128/18 24/56/18 38/58/18
f 51/129/19 27/59/19 40/61/19
f 53/130/20 41/62/20 30/64/20
f 58/131/21 43/65/21 44/67/21
f 59/132/22 45/68/22 46/70/22
f 61/133/23 47/71/23 48/73/23
f 63/134/24 49/74/24 38/76/24
f 65/135/25 51/77/25 52/79/25
f 67/136/26 41/62/26 54/81/26
f 72/137/27 55/82/27 57/84/27
f 72/138/28 57/85/28 44/87/28
f 68/139/29 59/88/29 60/90/29
f 69/140/30 61/91/30 62/93/30
f 70/112/31 49/94/31 64/96/31
f 71/141/32 65/97/32 66/99/32
f 9/142/33 67/100/33 10/102/33
f 13/143/34 12/103/34 55/105/34
f 15/144/35 68/106/35 16/108/35
f 19/145/36 18/109/36 62/111/36
f 21/146/37 70/112/37 22/114/37
f 26/147/38 25/115/38 66/117/38
o base
v 0.997783 0.249446 0.002217
v 0.997783 0.249446 0.126663
v 0.873337 0.249446 0.126663
v 0.873337 0.436115 0.002217
v 0.873337 0.436115 0.126663
v 0.997783 0.436115 0.126663
v 0.997783 0.436115 0.002217
v 0.873337 0.249446 0.002217
v 0.997783 0.000554 0.997783
v 0.002217 0.000554 0.997783
v 0.002217 0.000554 0.002217
v 0.997783 0.249446 0.002217
v 0.002217 0.249446 0.002217
v 0.002217 0.249446 0.997783
v 0.997783 0.000554 0.002217
v 0.997783 0.249446 0.997783
v 0.126663 0.249446 0.997783
v 0.002217 0.249446 0.997783
v 0.002217 0.249446 0.873337
v 0.002217 0.436114 0.873338
v 0.002217 0.436114 0.997783
v 0.126663 0.436114 0.997783
v 0.126663 0.436114 0.873338
v 0.126663 0.249446 0.873337
v 0.997783 0.436114 0.997783
v 0.002217 0.436114 0.997783
v 0.002217 0.436115 0.002217
v 0.997783 0.622783 0.002217
v 0.002217 0.622783 0.002217
v 0.002217 0.622783 0.997783
v 0.997783 0.436115 0.002217
v 0.997783 0.622783 0.997784
v 0.997783 0.249446 0.997783
v 0.873337 0.249446 0.997783
v 0.873337 0.249446 0.873337
v 0.873337 0.436114 0.873338
v 0.873337 0.436114 0.997783
v 0.997783 0.436114 0.997783
v 0.997783 0.249446 0.873337
v 0.997783 0.436114 0.873338
v 0.126663 0.249446 0.126663
v 0.002217 0.249446 0.126663
v 0.002217 0.249446 0.002217
v 0.126663 0.436115 0.002217
v 0.002217 0.436115 0.002217
v 0.002217 0.436115 0.126663
v 0.126663 0.249446 0.002217
v 0.126663 0.436115 0.126663
vt 0.000000 0.000000
vt 1.000000 0.000000
vt 1.000000 1.000000
vt 1.000000 0.000000
vt 1.000000 1.000000
vt 0.000000 1.000000
vt 0.125000 0.000000
vt 0.218751 0.000000
vt 0.218751 0.062498
vt 0.125000 0.437500
vt 0.218751 0.437500
vt 0.218751 0.500000
vt 0.218751 0.000000
vt 0.218751 0.062498
vt 0.125000 0.062500
vt 0.218751 0.500000
vt 0.218751 0.437500
vt 0.125000 0.437500
vt 0.000000 1.000000
vt 0.000000 0.000000
vt 0.125000 0.062500
vt 0.125000 0.500000
vt 0.125000 0.000000
vt 0.125000 0.500000
vt 0.500000 0.500000
vt 0.500000 1.000000
vt 0.000000 1.000000
vt 0.000000 0.500000
vt 0.500000 0.500000
vt 0.500000 1.000000
vt 0.000000 0.000000
vt 0.125000 0.000000
vt 0.125000 0.500000
vt 0.000000 0.000000
vt 0.125000 0.000000
vt 0.125000 0.500000
vt 0.125000 0.000000
vt 0.125000 0.500000
vt 0.000000 0.500000
vt 0.000000 0.500000
vt 0.000000 1.000000
vt 0.000000 0.500000
vt 0.000000 0.500000
vt 0.000000 0.000000
vt 1.000000 0.000000
vt 1.000000 1.000000
vt 0.000000 1.000000
vt 1.000000 0.000000
vt 1.000000 1.000000
vt 0.000000 1.000000
vt 0.218751 0.000000
vt 0.218751 0.062498
vt 0.125000 0.062500
vt 0.218751 0.437500
vt 0.218751 0.500000
vt 0.125000 0.500000
vt 0.218751 0.000000
vt 0.218751 0.062498
vt 0.125000 0.062500
vt 0.218751 0.000000
vt 0.218751 0.062500
vt 0.125000 0.062500
vt 0.000000 0.000000
vt 0.000000 0.000000
vt 0.125000 0.000000
vt 0.125000 0.437500
vt 0.125000 0.000000
vt 0.125000 0.000000
vt 0.500000 0.500000
vt 0.500000 1.000000
vt 0.000000 1.000000
vt 0.500000 0.500000
vt 1.000000 0.500000
vt 1.000000 1.000000
vt 0.218752 0.000001
vt 0.312500 0.000001
vt 0.312500 0.500001
vt 0.218752 0.000000
vt 0.312501 0.000000
vt 0.312501 0.499998
vt 0.312500 0.000001
vt 0.312500 0.500001
vt 0.218752 0.500001
vt 0.000000 0.500000
vt 0.500000 1.000000
vt 0.218752 0.500001
vt 0.218752 0.499998
vt 0.218752 0.000001
vt 1.000000 0.000000
vt 1.000000 1.000000
vt 0.000000 1.000000
vt 1.000000 0.000000
vt 1.000000 1.000000
vt 0.000000 1.000000
vt 0.125000 0.437500
vt 0.218751 0.437500
vt 0.218751 0.500000
vt 0.218751 0.000000
vt 0.218751 0.062498
vt 0.125000 0.062500
vt 0.218751 0.437500
vt 0.218751 0.500000
vt 0.125000 0.500000
vt 0.218751 0.437498
vt 0.218751 0.499998
vt 0.125000 0.500000
vt 0.000000 0.000000
vt 0.000000 0.000000
vt 0.125000 0.500000
vt 0.125000 0.000000
vt 0.125000 0.437500
vt 0.125000 0.437500
vt 1.000000 0.000000
vt 1.000000 1.000000
vt 0.000000 1.000000
vt 0.000000 0.000000
vt 1.000000 0.000000
vt 1.000000 1.000000
vt 0.125000 0.437500
vt 0.218751 0.437500
vt 0.218751 0.500000
vt 0.218751 0.000000
vt 0.218751 0.062498
vt 0.125000 0.062500
vt 0.218751 0.437500
vt 0.218751 0.500000
vt 0.125000 0.500000
vt 0.218751 0.062498
vt 0.218751 0.000000
vt 0.125000 0.000000
vt 0.000000 0.000000
vt 0.000000 1.000000
vt 0.125000 0.500000
vt 0.125000 0.000000
vt 0.125000 0.437500
vt 0.125000 0.062500
vn 0.0000 -1.0000 -0.0000
vn 0.0000 1.0000 0.0000
vn 1.0000 0.0000 0.0000
vn 0.0000 -0.0000 1.0000
vn -1.0000 0.0000 0.0000
vn 0.0000 0.0000 -1.0000
usemtl material
f 73/148/39 74/149/39 75/150/39
f 76/151/40 77/152/40 78/153/40
f 73/154/41 79/155/41 78/156/41
f 74/157/42 78/158/42 77/159/42
f 77/160/43 76/161/43 80/162/43
f 73/163/44 80/164/44 76/165/44
f 80/166/39 73/148/39 75/150/39
f 79/167/40 76/151/40 78/153/40
f 74/168/41 73/154/41 78/156/41
f 75/169/42 74/157/42 77/159/42
f 75/170/43 77/160/43 80/162/43
f 79/171/44 73/163/44 76/165/44
f 81/172/39 82/173/39 83/174/39
f 84/175/40 85/176/40 86/177/40
f 87/178/41 84/179/41 88/180/41
f 81/181/42 88/182/42 86/183/42
f 86/184/43 85/185/43 83/186/43
f 87/178/44 83/186/44 85/185/44
f 87/187/39 81/172/39 83/174/39
f 88/188/40 84/175/40 86/177/40
f 81/189/41 87/178/41 88/180/41
f 82/190/42 81/181/42 86/183/42
f 82/191/43 86/184/43 83/186/43
f 84/179/44 87/178/44 85/185/44
f 89/192/39 90/193/39 91/194/39
f 92/195/40 93/196/40 94/197/40
f 95/198/41 94/199/41 89/200/41
f 94/201/42 93/202/42 90/203/42
f 93/204/43 92/205/43 91/206/43
f 96/207/44 91/208/44 92/209/44
f 96/210/39 89/192/39 91/194/39
f 95/211/40 92/195/40 94/197/40
f 96/212/41 95/198/41 89/200/41
f 89/213/42 94/201/42 90/203/42
f 90/214/43 93/204/43 91/206/43
f 95/215/44 96/207/44 92/209/44
f 97/216/39 98/217/39 99/218/39
f 100/219/40 101/220/40 102/221/40
f 103/222/41 100/223/41 104/224/41
f 97/225/42 104/226/42 102/227/42
f 102/228/43 101/229/43 99/230/43
f 103/222/44 99/230/44 101/229/44
f 103/231/39 97/216/39 99/218/39
f 104/232/40 100/219/40 102/221/40
f 97/233/41 103/222/41 104/224/41
f 98/234/42 97/225/42 102/227/42
f 98/235/43 102/228/43 99/230/43
f 100/223/44 103/222/44 101/229/44
f 105/236/39 106/237/39 107/238/39
f 108/239/40 109/240/40 110/241/40
f 111/242/41 112/243/41 110/244/41
f 110/245/42 109/246/42 106/247/42
f 109/248/43 108/249/43 107/250/43
f 111/251/44 107/252/44 108/253/44
f 111/254/39 105/236/39 107/238/39
f 112/255/40 108/239/40 110/241/40
f 105/256/41 111/242/41 110/244/41
f 105/257/42 110/245/42 106/247/42
f 106/258/43 109/248/43 107/250/43
f 112/259/44 111/251/44 108/253/44
f 113/260/39 114/261/39 115/262/39
f 116/263/40 117/264/40 118/265/40
f 119/266/41 116/267/41 120/268/41
f 120/269/42 118/270/42 114/271/42
f 118/272/43 117/273/43 115/274/43
f 119/275/44 115/276/44 117/277/44
f 119/278/39 113/260/39 115/262/39
f 120/279/40 116/263/40 118/265/40
f 113/280/41 119/266/41 120/268/41
f 113/281/42 120/269/42 114/271/42
f 114/282/43 118/272/43 115/274/43
f 116/283/44 119/275/44 117/277/44
o glider
v 0.126663 0.746215 0.748892
v 0.126663 0.621769 0.748892
v 0.126663 0.621769 0.873338
v 0.748892 0.746215 0.748892
v 0.748892 0.621769 0.748892
v 0.748892 0.746215 0.873338
v 0.748892 0.621769 0.873338
v 0.126663 0.746215 0.873338
v 0.126663 0.746215 0.126663
v 0.126663 0.621770 0.126663
v 0.126663 0.621769 0.748892
v 0.251108 0.746215 0.126663
v 0.251108 0.621770 0.126663
v 0.251108 0.746215 0.748892
v 0.251108 0.621769 0.748892
v 0.126663 0.746215 0.748892
v 0.748892 0.746215 0.251109
v 0.748892 0.621770 0.251109
v 0.748892 0.621769 0.873338
v 0.873337 0.746215 0.251109
v 0.873337 0.621770 0.251109
v 0.873337 0.746215 0.873338
v 0.873337 0.621769 0.873338
v 0.748892 0.746215 0.873338
v 0.251108 0.746215 0.126663
v 0.251108 0.621770 0.126663
v 0.251108 0.621770 0.251109
v 0.873337 0.746215 0.126663
v 0.873337 0.621770 0.126663
v 0.873337 0.746215 0.251109
v 0.873337 0.621770 0.251109
v 0.251108 0.746215 0.251109
vt 1.000000 0.000000
vt 1.000000 0.062500
vt 0.937500 0.062500
vt 1.000000 0.000000
vt 1.000000 1.000000
vt 0.000000 1.000000
vt 1.000000 0.000000
vt 1.000000 1.000000
vt 0.000000 1.000000
vt 0.937500 0.000000
vt 0.625000 0.062500
vt 0.624929 0.062550
vt 0.999929 0.062550
vt 1.000000 0.125000
vt 0.625000 0.000000
vt 0.312700 0.000000
vt 0.312700 0.062500
vt 0.937500 0.000000
vt 0.937500 0.062500
vt 0.625000 0.062500
vt 1.000000 0.000000
vt 1.000000 0.062500
vt 1.000000 0.000000
vt 1.000000 1.000000
vt 0.000000 1.000000
vt 1.000000 0.000000
vt 1.000000 1.000000
vt 0.000000 1.000000
vt 0.999929 0.062550
vt 1.000000 0.125000
vt 0.625000 0.125000
vt 0.312700 0.000000
vt 0.312700 0.062500
vt 0.625000 0.062500
vt 1.000000 0.000000
vt 1.000000 1.000000
vt 0.000000 1.000000
vt 1.000000 0.000000
vt 1.000000 1.000000
vt 0.000000 1.000000
vt 0.937500 0.000000
vt 0.937500 0.062500
vt 0.625000 0.062500
vt 1.000000 0.000000
vt 1.000000 0.062500
vt 0.999929 0.062550
vt 1.000000 0.125000
vt 0.625000 0.125000
vt 0.625000 0.062300
vt 0.625000 0.000000
vt 0.312500 0.000000
vt 1.000000 0.000000
vt 1.000000 1.000000
vt 0.000000 1.000000
vt 0.937500 0.000000
vt 0.937500 0.062500
vt 0.625000 0.062500
vt 0.937500 0.000000
vt 0.937500 0.062500
vt 1.000000 0.062500
vt 1.000000 0.000000
vt 1.000000 1.000000
vt 0.000000 1.000000
vt 0.624929 0.062550
vt 0.999929 0.062550
vt 1.000000 0.125000
vt 0.312700 0.062300
vt 0.625000 0.062300
vt 0.625000 0.000000
vt 0.000000 0.000000
vt 0.000000 0.000000
vt 0.625000 0.000000
vt 0.625000 0.125000
vt 0.625000 0.062500
vt 0.625000 0.000000
vt 0.000000 0.000000
vt 0.000000 0.000000
vt 0.624929 0.062550
vt 0.625000 0.000000
vt 0.000000 0.000000
vt 0.000000 0.000000
vt 0.625000 0.000000
vt 0.624929 0.062550
vt 0.312500 0.062300
vt 0.000000 0.000000
vt 0.625000 0.000000
vt 1.000000 0.000000
vt 0.000000 0.000000
vt 0.625000 0.125000
vt 0.312700 0.000000
vn -1.0000 0.0000 0.0000
vn 0.0000 0.0000 -1.0000
vn 1.0000 0.0000 0.0000
vn 0.0000 0.0000 1.0000
vn 0.0000 -1.0000 0.0000
vn 0.0000 1.0000 0.0000
usemtl material
f 121/284/45 122/285/45 123/286/45
f 124/287/46 125/288/46 122/289/46
f 126/290/47 127/291/47 125/292/47
f 128/293/48 123/286/48 127/294/48
f 122/295/49 125/296/49 127/297/49
f 124/298/50 121/299/50 128/300/50
f 129/301/45 130/302/45 131/303/45
f 132/304/46 133/305/46 130/302/46
f 134/306/47 135/307/47 133/308/47
f 136/309/48 131/310/48 135/311/48
f 130/312/49 133/313/49 135/314/49
f 132/315/50 129/316/50 136/317/50
f 137/318/45 138/319/45 139/320/45
f 140/321/46 141/322/46 138/323/46
f 142/324/47 143/325/47 141/326/47
f 144/327/48 139/328/48 143/325/48
f 138/329/49 141/330/49 143/331/49
f 140/332/50 137/333/50 144/334/50
f 145/335/45 146/336/45 147/337/45
f 148/338/46 149/339/46 146/340/46
f 150/341/47 151/342/47 149/343/47
f 152/344/48 147/345/48 151/346/48
f 146/347/49 149/348/49 151/349/49
f 148/350/50 145/351/50 152/352/50
f 128/293/45 121/284/45 123/286/45
f 121/353/46 124/287/46 122/289/46
f 124/354/47 126/290/47 125/292/47
f 126/355/48 128/293/48 127/294/48
f 123/356/49 122/295/49 127/297/49
f 126/357/50 124/298/50 128/300/50
f 136/358/45 129/301/45 131/303/45
f 129/301/46 132/304/46 130/302/46
f 132/359/47 134/306/47 133/308/47
f 134/360/48 136/309/48 135/311/48
f 131/361/49 130/312/49 135/314/49
f 134/362/50 132/315/50 136/317/50
f 144/363/45 137/318/45 139/320/45
f 137/364/46 140/321/46 138/323/46
f 140/365/47 142/324/47 141/326/47
f 142/324/48 144/327/48 143/325/48
f 139/366/49 138/329/49 143/331/49
f 142/367/50 140/332/50 144/334/50
f 152/368/45 145/335/45 147/337/45
f 145/369/46 148/338/46 146/340/46
f 148/370/47 150/341/47 149/343/47
f 150/371/48 152/344/48 151/346/48
f 147/372/49 146/347/49 151/349/49
f 150/373/50 148/350/50 152/352/50
