# Blender v2.79 (sub 0) OBJ File: 'engine_base.obj'
# www.blender.org
mtllib engine.mtl
o base
v 0.998781 0.249695 0.002219
v 0.998781 0.249695 0.126790
v 0.874210 0.249695 0.126790
v 0.874210 0.436551 0.002219
v 0.874210 0.436551 0.126790
v 0.998781 0.436551 0.126790
v 0.998781 0.436551 0.002219
v 0.874210 0.249695 0.002219
v 0.998781 0.000554 0.998781
v 0.002219 0.000554 0.998781
v 0.002219 0.000555 0.002219
v 0.998781 0.249695 0.002219
v 0.002219 0.249695 0.002219
v 0.002219 0.249695 0.998781
v 0.998781 0.000555 0.002219
v 0.998781 0.249695 0.998781
v 0.126790 0.249695 0.998781
v 0.002219 0.249695 0.998781
v 0.002219 0.249695 0.874210
v 0.002219 0.436550 0.874211
v 0.002219 0.436550 0.998781
v 0.126790 0.436550 0.998781
v 0.126790 0.436550 0.874211
v 0.126790 0.249695 0.874210
v 0.998781 0.436550 0.998781
v 0.002219 0.436550 0.998781
v 0.002219 0.436551 0.002219
v 0.998781 0.623406 0.002219
v 0.002219 0.623406 0.002219
v 0.002219 0.623406 0.998781
v 0.998781 0.436551 0.002219
v 0.998781 0.623406 0.998782
v 0.998781 0.249695 0.998781
v 0.874210 0.249695 0.998781
v 0.874210 0.249695 0.874210
v 0.874210 0.436550 0.874211
v 0.874210 0.436550 0.998781
v 0.998781 0.436550 0.998781
v 0.998781 0.249695 0.874210
v 0.998781 0.436550 0.874211
v 0.126790 0.249695 0.126790
v 0.002219 0.249695 0.126790
v 0.002219 0.249695 0.002219
v 0.126790 0.436551 0.002219
v 0.002219 0.436551 0.002219
v 0.002219 0.436551 0.126790
v 0.126790 0.249695 0.002219
v 0.126790 0.436551 0.126790
vt 1.000000 0.000000
vt 1.000000 1.000000
vt 0.000000 1.000000
vt 0.000000 0.000000
vt 0.125000 0.000000
vt 0.218751 0.000000
vt 0.218751 0.062498
vt 0.125000 0.062500
vt 0.125000 0.437500
vt 0.218751 0.437500
vt 0.218751 0.500000
vt 0.125000 0.500000
vt 0.218751 0.500000
vt 0.218751 0.437500
vt 0.125000 0.437500
vt 0.125000 0.500000
vt 0.500000 0.500000
vt 0.500000 1.000000
vt 0.000000 1.000000
vt 0.000000 0.500000
vt 0.218751 0.000000
vt 0.218751 0.062498
vt 0.125000 0.062500
vt 0.125000 0.000000
vt 0.000000 0.000000
vt 0.125000 0.000000
vt 0.125000 0.500000
vt 0.000000 0.500000
vt 0.218751 0.437500
vt 0.218751 0.500000
vt 0.125000 0.500000
vt 0.125000 0.437500
vt 0.000000 0.500000
vt 0.125000 0.500000
vt 0.000000 0.500000
vt 0.500000 0.500000
vt 0.500000 1.000000
vt 0.000000 1.000000
vt 0.000000 0.000000
vt 0.125000 0.000000
vt 0.125000 0.500000
vt 0.000000 0.500000
vt 0.125000 0.000000
vt 0.000000 0.000000
vt 0.218751 0.000000
vt 0.218751 0.062498
vt 0.125000 0.062500
vt 0.125000 0.000000
vt 1.000000 0.000000
vt 1.000000 1.000000
vt 0.000000 1.000000
vt 0.000000 0.000000
vt 0.125000 0.437500
vt 0.218751 0.437500
vt 0.218751 0.500000
vt 0.125000 0.500000
vt 0.218751 0.000000
vt 0.218751 0.062500
vt 0.125000 0.062500
vt 0.125000 0.000000
vt 1.000000 0.000000
vt 1.000000 1.000000
vt 0.000000 1.000000
vt 0.000000 0.000000
vt 0.218751 0.000000
vt 0.218751 0.062498
vt 0.125000 0.062500
vt 0.125000 0.000000
vt 0.500000 0.500000
vt 0.500000 1.000000
vt 0.000000 1.000000
vt 0.000000 0.500000
vt 0.218752 0.000000
vt 0.312501 0.000000
vt 0.312501 0.499998
vt 0.218752 0.499998
vt 0.312500 0.000001
vt 0.312500 0.500001
vt 0.218752 0.500001
vt 0.218752 0.000001
vt 0.500000 0.500000
vt 1.000000 0.500000
vt 1.000000 1.000000
vt 0.500000 1.000000
vt 0.218752 0.000001
vt 0.312500 0.000001
vt 0.312500 0.500001
vt 0.218752 0.500001
vt 0.218751 0.000000
vt 0.218751 0.062498
vt 0.125000 0.062500
vt 0.125000 0.000000
vt 0.218751 0.437500
vt 0.218751 0.500000
vt 0.125000 0.500000
vt 0.125000 0.437500
vt 0.218751 0.437498
vt 0.218751 0.499998
vt 0.125000 0.500000
vt 0.125000 0.437500
vt 0.125000 0.437500
vt 0.218751 0.437500
vt 0.218751 0.500000
vt 0.125000 0.500000
vt 1.000000 0.000000
vt 1.000000 1.000000
vt 0.000000 1.000000
vt 0.000000 0.000000
vt 1.000000 0.000000
vt 1.000000 1.000000
vt 0.000000 1.000000
vt 0.000000 0.000000
vt 0.000000 0.000000
vt 1.000000 0.000000
vt 1.000000 1.000000
vt 0.000000 1.000000
vt 1.000000 0.000000
vt 1.000000 1.000000
vt 0.000000 1.000000
vt 0.000000 0.000000
vt 0.218751 0.062498
vt 0.218751 0.000000
vt 0.125000 0.000000
vt 0.125000 0.062500
vt 0.000000 0.000000
vt 1.000000 0.000000
vt 1.000000 1.000000
vt 0.000000 1.000000
vt 0.218751 0.000000
vt 0.218751 0.062498
vt 0.125000 0.062500
vt 0.125000 0.000000
vt 0.218751 0.437500
vt 0.218751 0.500000
vt 0.125000 0.500000
vt 0.125000 0.437500
vn 0.0000 1.0000 0.0000
vn 1.0000 -0.0000 0.0000
vn 0.0000 -0.0000 1.0000
vn 0.0000 0.0000 -1.0000
vn 0.0000 -1.0000 -0.0000
vn -1.0000 0.0000 0.0000
usemtl material
s 1
f 4/1/1 5/2/1 6/3/1 7/4/1
f 1/5/2 7/6/2 6/7/2 2/8/2
f 2/9/3 6/10/3 5/11/3 3/12/3
f 1/13/4 8/14/4 4/15/4 7/16/4
f 25/17/5 26/18/5 27/19/5 31/20/5
f 5/21/6 4/22/6 8/23/6 3/24/6
f 15/25/2 12/26/2 16/27/2 9/28/2
f 22/29/3 21/30/3 18/31/3 17/32/3
f 15/25/4 11/33/4 13/34/4 12/26/4
f 12/35/1 13/36/1 14/37/1 16/38/1
f 9/39/3 16/40/3 14/41/3 10/42/3
f 14/43/6 13/34/6 11/33/6 10/44/6
f 38/45/3 37/46/3 34/47/3 33/48/3
f 17/49/5 18/50/5 19/51/5 24/52/5
f 47/53/2 44/54/2 48/55/2 41/56/2
f 24/57/4 19/58/4 20/59/4 23/60/4
f 20/61/1 21/62/1 22/63/1 23/64/1
f 21/65/6 20/66/6 19/67/6 18/68/6
f 9/69/5 10/70/5 11/71/5 15/72/5
f 25/73/3 32/74/3 30/75/3 26/76/3
f 30/77/6 29/78/6 27/79/6 26/80/6
f 28/81/1 29/82/1 30/83/1 32/84/1
f 31/85/2 28/86/2 32/87/2 25/88/2
f 23/89/2 22/90/2 17/91/2 24/92/2
f 37/93/6 36/94/6 35/95/6 34/96/6
f 39/97/4 35/98/4 36/99/4 40/100/4
f 39/101/2 40/102/2 38/103/2 33/104/2
f 33/105/5 34/106/5 35/107/5 39/108/5
f 36/109/1 37/110/1 38/111/1 40/112/1
f 1/113/5 2/114/5 3/115/5 8/116/5
f 41/117/5 42/118/5 43/119/5 47/120/5
f 47/121/4 43/122/4 45/123/4 44/124/4
f 44/125/1 45/126/1 46/127/1 48/128/1
f 48/129/3 46/130/3 42/131/3 41/132/3
f 46/133/6 45/134/6 43/135/6 42/136/6
f 31/85/4 27/79/4 29/78/4 28/86/4
o upperbase
v 0.748892 0.625133 0.748892
v 0.251108 0.625133 0.748892
v 0.251109 0.625133 0.251109
v 0.748892 1.014027 0.251109
v 0.251108 1.014027 0.251109
v 0.251108 1.014027 0.748892
v 0.748892 0.625133 0.251109
v 0.748891 1.014027 0.748892
vt 0.500000 0.500000
vt 0.500000 1.000000
vt 0.000000 1.000000
vt 0.000000 0.500000
vt 0.499999 0.124999
vt 0.499999 0.374999
vt 0.312501 0.374998
vt 0.312501 0.124998
vt 0.500000 0.125000
vt 0.750000 0.125000
vt 0.750000 0.375000
vt 0.500000 0.374998
vt 0.312501 0.124998
vt 0.499999 0.124999
vt 0.499999 0.374999
vt 0.312501 0.374998
vt 0.500000 0.124998
vt 0.500000 0.374998
vt 0.312500 0.374999
vt 0.312500 0.124999
vt 0.312500 0.124999
vt 0.312500 0.374999
vn 0.0000 -1.0000 0.0000
vn 0.0000 0.0000 -1.0000
vn 0.0000 1.0000 0.0000
vn 0.0000 -0.0000 1.0000
vn -1.0000 -0.0000 -0.0000
vn 1.0000 0.0000 0.0000
usemtl material
s 1
f 49/137/7 50/138/7 51/139/7 55/140/7
f 55/141/8 51/142/8 53/143/8 52/144/8
f 52/145/9 53/146/9 54/147/9 56/148/9
f 49/149/10 56/150/10 54/151/10 50/152/10
f 54/153/11 53/154/11 51/155/11 50/156/11
f 55/157/12 52/145/12 56/148/12 49/158/12
