# Blender v2.79 (sub 0) OBJ File: 'engine.obj'
# www.blender.org
mtllib engine.mtl
o glider
v 0.126663 0.746215 0.748892
v 0.126663 0.621769 0.748892
v 0.126663 0.621769 0.873338
v 0.748892 0.746215 0.748892
v 0.748892 0.621769 0.748892
v 0.748892 0.746215 0.873338
v 0.748892 0.621769 0.873338
v 0.126663 0.746215 0.873338
v 0.126663 0.746215 0.126663
v 0.126663 0.621770 0.126663
v 0.126663 0.621769 0.748892
v 0.251108 0.746215 0.126663
v 0.251108 0.621770 0.126663
v 0.251108 0.746215 0.748892
v 0.251108 0.621769 0.748892
v 0.126663 0.746215 0.748892
v 0.748892 0.746215 0.251109
v 0.748892 0.621770 0.251109
v 0.748892 0.621769 0.873338
v 0.873337 0.746215 0.251109
v 0.873337 0.621770 0.251109
v 0.873337 0.746215 0.873338
v 0.873337 0.621769 0.873338
v 0.748892 0.746215 0.873338
v 0.251108 0.746215 0.126663
v 0.251108 0.621770 0.126663
v 0.251108 0.621770 0.251109
v 0.873337 0.746215 0.126663
v 0.873337 0.621770 0.126663
v 0.873337 0.746215 0.251109
v 0.873337 0.621770 0.251109
v 0.251108 0.746215 0.251109
vt 1.000000 0.000000
vt 1.000000 0.062500
vt 0.937500 0.062500
vt 1.000000 0.000000
vt 1.000000 1.000000
vt 0.000000 1.000000
vt 1.000000 0.000000
vt 1.000000 1.000000
vt 0.000000 1.000000
vt 0.937500 0.000000
vt 0.625000 0.062500
vt 0.624929 0.062550
vt 0.999929 0.062550
vt 1.000000 0.125000
vt 0.625000 0.000000
vt 0.312700 0.000000
vt 0.312700 0.062500
vt 0.937500 0.000000
vt 0.937500 0.062500
vt 0.625000 0.062500
vt 1.000000 0.000000
vt 1.000000 0.062500
vt 1.000000 0.000000
vt 1.000000 1.000000
vt 0.000000 1.000000
vt 1.000000 0.000000
vt 1.000000 1.000000
vt 0.000000 1.000000
vt 0.999929 0.062550
vt 1.000000 0.125000
vt 0.625000 0.125000
vt 0.312700 0.000000
vt 0.312700 0.062500
vt 0.625000 0.062500
vt 1.000000 0.000000
vt 1.000000 1.000000
vt 0.000000 1.000000
vt 1.000000 0.000000
vt 1.000000 1.000000
vt 0.000000 1.000000
vt 0.937500 0.000000
vt 0.937500 0.062500
vt 0.625000 0.062500
vt 1.000000 0.000000
vt 1.000000 0.062500
vt 0.999929 0.062550
vt 1.000000 0.125000
vt 0.625000 0.125000
vt 0.625000 0.062300
vt 0.625000 0.000000
vt 0.312500 0.000000
vt 1.000000 0.000000
vt 1.000000 1.000000
vt 0.000000 1.000000
vt 0.937500 0.000000
vt 0.937500 0.062500
vt 0.625000 0.062500
vt 0.937500 0.000000
vt 0.937500 0.062500
vt 1.000000 0.062500
vt 1.000000 0.000000
vt 1.000000 1.000000
vt 0.000000 1.000000
vt 0.624929 0.062550
vt 0.999929 0.062550
vt 1.000000 0.125000
vt 0.312700 0.062300
vt 0.625000 0.062300
vt 0.625000 0.000000
vt 0.000000 0.000000
vt 0.000000 0.000000
vt 0.625000 0.000000
vt 0.625000 0.125000
vt 0.625000 0.062500
vt 0.625000 0.000000
vt 0.000000 0.000000
vt 0.000000 0.000000
vt 0.624929 0.062550
vt 0.625000 0.000000
vt 0.000000 0.000000
vt 0.000000 0.000000
vt 0.625000 0.000000
vt 0.624929 0.062550
vt 0.312500 0.062300
vt 0.000000 0.000000
vt 0.625000 0.000000
vt 1.000000 0.000000
vt 0.000000 0.000000
vt 0.625000 0.125000
vt 0.312700 0.000000
vn -1.0000 0.0000 0.0000
vn 0.0000 0.0000 -1.0000
vn 1.0000 0.0000 0.0000
vn 0.0000 0.0000 1.0000
vn 0.0000 -1.0000 0.0000
vn 0.0000 1.0000 0.0000
usemtl material
s 1
f 1/1/1 2/2/1 3/3/1
f 4/4/2 5/5/2 2/6/2
f 6/7/3 7/8/3 5/9/3
f 8/10/4 3/3/4 7/11/4
f 2/12/5 5/13/5 7/14/5
f 4/15/6 1/16/6 8/17/6
f 9/18/1 10/19/1 11/20/1
f 12/21/2 13/22/2 10/19/2
f 14/23/3 15/24/3 13/25/3
f 16/26/4 11/27/4 15/28/4
f 10/29/5 13/30/5 15/31/5
f 12/32/6 9/33/6 16/34/6
f 17/35/1 18/36/1 19/37/1
f 20/38/2 21/39/2 18/40/2
f 22/41/3 23/42/3 21/43/3
f 24/44/4 19/45/4 23/42/4
f 18/46/5 21/47/5 23/48/5
f 20/49/6 17/50/6 24/51/6
f 25/52/1 26/53/1 27/54/1
f 28/55/2 29/56/2 26/57/2
f 30/58/3 31/59/3 29/60/3
f 32/61/4 27/62/4 31/63/4
f 26/64/5 29/65/5 31/66/5
f 28/67/6 25/68/6 32/69/6
f 8/10/1 1/1/1 3/3/1
f 1/70/2 4/4/2 2/6/2
f 4/71/3 6/7/3 5/9/3
f 6/72/4 8/10/4 7/11/4
f 3/73/5 2/12/5 7/14/5
f 6/74/6 4/15/6 8/17/6
f 16/75/1 9/18/1 11/20/1
f 9/18/2 12/21/2 10/19/2
f 12/76/3 14/23/3 13/25/3
f 14/77/4 16/26/4 15/28/4
f 11/78/5 10/29/5 15/31/5
f 14/79/6 12/32/6 16/34/6
f 24/80/1 17/35/1 19/37/1
f 17/81/2 20/38/2 18/40/2
f 20/82/3 22/41/3 21/43/3
f 22/41/4 24/44/4 23/42/4
f 19/83/5 18/46/5 23/48/5
f 22/84/6 20/49/6 24/51/6
f 32/85/1 25/52/1 27/54/1
f 25/86/2 28/55/2 26/57/2
f 28/87/3 30/58/3 29/60/3
f 30/88/4 32/61/4 31/63/4
f 27/89/5 26/64/5 31/66/5
f 30/90/6 28/67/6 32/69/6
